# xmcd
#
# Track frame offsets: 
#        150
#        11974
#        25152
#        39366
#        50811
#        67273
#        78400
#        92481
#        106943
#        116523
#
# Disc length: 1796 seconds
#
# Revision: 2
# Processed by: cddbd v1.5.2PL0 Copyright (c) Steve Scherf et al.
# Submitted via: ExactAudioCopy v1.0b3
#
DISCID=7f07020a
DTITLE=Crystal Gayle - We Must Believe In Magic
DYEAR=1977
DGENRE=Country-Rock, Soft Rock
TTITLE0=Don't It Make My Brown Eyes Blue
TTITLE1=I Wanna Come Back To You
TTITLE2=River Road
TTITLE3=It's All Right With Me
TTITLE4=Going Down Slow
TTITLE5=All I Want To Do In Life
TTITLE6=Make A Dream Come True
TTITLE7=Green Door
TTITLE8=Funny
TTITLE9=We Must Believe In Magic
EXTD=LP Rip\nUnited Artists - 1977 YEAR: 1977
EXTT0=
EXTT1=
EXTT2=
EXTT3=
EXTT4=
EXTT5=
EXTT6=
EXTT7=
EXTT8=
EXTT9=
PLAYORDER=
